<?xml version="1.0" encoding="UTF-8"?>
<svg width="32px" height="32px" viewBox="0 0 32 32" version="1.1" xmlns="http://www.w3.org/2000/svg">
    <title>Vite Logo</title>
    <g stroke="none" stroke-width="1" fill="none" fill-rule="evenodd">
        <path d="M29.8836,6.146 L16.7418,29.3458 C16.3789,29.9728 15.4804,29.9546 15.1464,29.3126 L2.0875,6.14668 C1.7165,5.44268 2.3165,4.62668 3.0875,4.80068 L15.9641,7.93268 C16.0158,7.94668 16.0679,7.94668 16.1197,7.93268 L28.8958,4.80135 C29.6668,4.62735 30.2666,5.44268 29.8836,6.146 Z" fill="#41B883" fill-rule="nonzero"></path>
        <path d="M24.3283,2.86601 L16.7418,29.3458 C16.3789,29.9728 15.4804,29.9546 15.1464,29.3126 L2.0875,6.14668 C1.7165,5.44268 2.3165,4.62668 3.0875,4.80068 L15.9641,7.93268 C16.0158,7.94668 16.0679,7.94668 16.1197,7.93268 L24.3283,2.86601 Z" fill="#34495E" fill-rule="nonzero"></path>
    </g>
</svg>
